HIERARCHY
ROOT hip
{
  OFFSET 0 0 0
  CHANNELS 6 Xposition Yposition Zposition Zrotation Yrotation Xrotation
  JOINT abdomen
  {
    OFFSET 0 20.6881 -0.73152
    CHANNELS 3 Zrotation Xrotation Yrotation
    JOINT chest
    {
      OFFSET 0 11.7043 -0.48768
      CHANNELS 3 Zrotation Xrotation Yrotation
      JOINT neck
      {
        OFFSET 0 22.1894 -2.19456
        CHANNELS 3 Zrotation Xrotation Yrotation
        JOINT head
        {
          OFFSET -0.24384 7.07133 1.2192
          CHANNELS 3 Zrotation Xrotation Yrotation
          JOINT leftEye
          {
            OFFSET 4.14528 8.04674 8.04672
            CHANNELS 3 Zrotation Xrotation Yrotation
            End Site
            {
              OFFSET 1 0 0
            }
          }
          JOINT rightEye
          {
            OFFSET -3.6576 8.04674 8.04672
            CHANNELS 3 Zrotation Xrotation Yrotation
            End Site
            {
              OFFSET 1 0 0
            }
          }
        }
      }
      JOINT rCollar
      {
        OFFSET -2.68224 19.2634 -4.8768
        CHANNELS 3 Zrotation Xrotation Yrotation
        JOINT rShldr
        {
          OFFSET -8.77824 -1.95073 1.46304
          CHANNELS 3 Zrotation Xrotation Yrotation
          JOINT rForeArm
          {
            OFFSET -28.1742 -1.7115 0.48768
            CHANNELS 3 Zrotation Xrotation Yrotation
            JOINT rHand
            {
              OFFSET -22.5879 0.773209 7.07136
              CHANNELS 3 Zrotation Xrotation Yrotation
              JOINT rThumb1
              {
                OFFSET -1.2192 -0.487915 3.41376
                CHANNELS 3 Zrotation Xrotation Yrotation
                JOINT rThumb2
                {
                  OFFSET -3.37035 -0.52449 3.41376
                  CHANNELS 3 Zrotation Xrotation Yrotation
                  End Site
                  {
                    OFFSET -1.78271 -1.18214 1.43049
                  }
                }
              }
              JOINT rIndex1
              {
                OFFSET -7.75947 0.938293 5.60832
                CHANNELS 3 Zrotation Xrotation Yrotation
                JOINT rIndex2
                {
                  OFFSET -2.54057 -0.884171 1.56538
                  CHANNELS 3 Zrotation Xrotation Yrotation
                  End Site
                  {
                    OFFSET -1.62519 -0.234802 1.16502
                  }
                }
              }
              JOINT rMid1
              {
                OFFSET -8.24714 1.18213 3.41376
                CHANNELS 3 Zrotation Xrotation Yrotation
                JOINT rMid2
                {
                  OFFSET -3.10165 -0.590103 1.0647
                  CHANNELS 3 Zrotation Xrotation Yrotation
                  End Site
                  {
                    OFFSET -2.48547 -0.328903 0.83742
                  }
                }
              }
              JOINT rRing1
              {
                OFFSET -8.82822 0.546677 1.51678
                CHANNELS 3 Zrotation Xrotation Yrotation
                JOINT rRing2
                {
                  OFFSET -2.60934 -0.819778 -0.0198488
                  CHANNELS 3 Zrotation Xrotation Yrotation
                  End Site
                  {
                    OFFSET -2.33842 -0.294052 0.168128
                  }
                }
              }
              JOINT rPinky1
              {
                OFFSET -8.27202 -0.0477905 -0.4584
                CHANNELS 3 Zrotation Xrotation Yrotation
                JOINT rPinky2
                {
                  OFFSET -1.82734 -0.647385 -0.700984
                  CHANNELS 3 Zrotation Xrotation Yrotation
                  End Site
                  {
                    OFFSET -1.69225 -0.51767 -0.607171
                  }
                }
              }
            }
          }
        }
      }
      JOINT lCollar
      {
        OFFSET 2.68224 19.2634 -4.8768
        CHANNELS 3 Zrotation Xrotation Yrotation
        JOINT lShldr
        {
          OFFSET 8.77824 -1.95073 1.46304
          CHANNELS 3 Zrotation Xrotation Yrotation
          JOINT lForeArm
          {
            OFFSET 28.1742 -1.7115 0.48768
            CHANNELS 3 Zrotation Xrotation Yrotation
            JOINT lHand
            {
              OFFSET 22.5879 0.773209 7.07136
              CHANNELS 3 Zrotation Xrotation Yrotation
              JOINT lThumb1
              {
                OFFSET 1.2192 -0.487915 3.41376
                CHANNELS 3 Zrotation Xrotation Yrotation
                JOINT lThumb2
                {
                  OFFSET 3.37035 -0.52449 3.41376
                  CHANNELS 3 Zrotation Xrotation Yrotation
                  End Site
                  {
                    OFFSET 1.78271 -1.18214 1.43049
                  }
                }
              }
              JOINT lIndex1
              {
                OFFSET 7.75947 0.938293 5.60832
                CHANNELS 3 Zrotation Xrotation Yrotation
                JOINT lIndex2
                {
                  OFFSET 2.54057 -0.884171 1.56538
                  CHANNELS 3 Zrotation Xrotation Yrotation
                  End Site
                  {
                    OFFSET 1.62519 -0.234802 1.16502
                  }
                }
              }
              JOINT lMid1
              {
                OFFSET 8.24714 1.18213 3.41376
                CHANNELS 3 Zrotation Xrotation Yrotation
                JOINT lMid2
                {
                  OFFSET 3.10165 -0.590103 1.0647
                  CHANNELS 3 Zrotation Xrotation Yrotation
                  End Site
                  {
                    OFFSET 2.48547 -0.328903 0.83742
                  }
                }
              }
              JOINT lRing1
              {
                OFFSET 8.82822 0.546677 1.51678
                CHANNELS 3 Zrotation Xrotation Yrotation
                JOINT lRing2
                {
                  OFFSET 2.60934 -0.819778 -0.0198488
                  CHANNELS 3 Zrotation Xrotation Yrotation
                  End Site
                  {
                    OFFSET 2.33842 -0.294052 0.168128
                  }
                }
              }
              JOINT lPinky1
              {
                OFFSET 8.27202 -0.0477905 -0.4584
                CHANNELS 3 Zrotation Xrotation Yrotation
                JOINT lPinky2
                {
                  OFFSET 1.82734 -0.647385 -0.700984
                  CHANNELS 3 Zrotation Xrotation Yrotation
                  End Site
                  {
                    OFFSET 1.69225 -0.51767 -0.607171
                  }
                }
              }
            }
          }
        }
      }
    }
  }
  JOINT rButtock
  {
    OFFSET -8.77824 4.35084 1.2192
    CHANNELS 3 Zrotation Xrotation Yrotation
    JOINT rThigh
    {
      OFFSET 0 -1.70687 -2.19456
      CHANNELS 3 Zrotation Xrotation Yrotation
      JOINT rShin
      {
        OFFSET 0 -36.8199 0.73152
        CHANNELS 3 Zrotation Xrotation Yrotation
        JOINT rFoot
        {
          OFFSET 0.73152 -45.1104 -5.12064
          CHANNELS 3 Zrotation Xrotation Yrotation
          End Site
          {
            OFFSET -1.1221 -3.69964 12.103
          }
        }
      }
    }
  }
  JOINT lButtock
  {
    OFFSET 8.77824 4.35084 1.2192
    CHANNELS 3 Zrotation Xrotation Yrotation
    JOINT lThigh
    {
      OFFSET 0 -1.70687 -2.19456
      CHANNELS 3 Zrotation Xrotation Yrotation
      JOINT lShin
      {
        OFFSET 0 -36.8199 0.73152
        CHANNELS 3 Zrotation Xrotation Yrotation
        JOINT lFoot
        {
          OFFSET -0.73152 -45.1104 -5.12064
          CHANNELS 3 Zrotation Xrotation Yrotation
          End Site
          {
            OFFSET 1.1221 -3.69964 12.103
          }
        }
      }
    }
  }
}
MOTION
Frames:	4
Frame Time:	0.00833333
3.27461 106.369 -36.2686 -0.7906 0.0828 9.9894 -0.591781 11.5841 -3.98672 3.03221 -0.00891927 -1.07422 -1.36083 5.72893 0.830944 -1.25838 7.80924 1.85126 -0.0 0.0 0.0 -0.0 0.0 0.0 -1.77008e-15 3.27959e-14 -5.74612e-16 77.0675 13.2858 11.3117 -11.5777 -5.15638 20.7963 -1.57909 33.2409 5.28532 1.13462e-10 9.28485e-11 -3.12165e-10 1.86199e-10 1.63855e-10 -5.41418e-10 1.13462e-10 9.28529e-11 -3.12176e-10 7.73091 5.47488 0.417314 1.13467e-10 9.28503e-11 -3.12157e-10 2.90554 0.965183 0.102902 1.13471e-10 9.28539e-11 -3.12168e-10 10.2786 0.731801 0.0259123 1.13462e-10 9.28518e-11 -3.1216e-10 2.22167 -0.733487 -0.20892 -1.85789e-15 3.28022e-14 -8.16881e-16 -70.1788 28.4204 -23.1409 9.00873 -3.55973 -15.9561 0.221162 -13.2642 1.8986 -9.92929e-11 1.36603e-10 1.3801e-10 -1.7017e-10 2.37832e-10 2.35918e-10 -9.92974e-11 1.36604e-10 1.3802e-10 -7.73091 5.47488 -0.417314 -9.92918e-11 1.36603e-10 1.38008e-10 -2.90554 0.965183 -0.102902 -9.92985e-11 1.36603e-10 1.38011e-10 -10.2786 0.731801 -0.0259123 -9.92846e-11 1.36606e-10 1.38009e-10 -2.22167 -0.733487 0.20892 -2.03217e-16 0.0 -3.88251e-19 -5.87657 -36.2942 -6.34826 -0.25503 31.3733 0.234559 0.609453 19.7498 -4.05064 2.03217e-16 0.0 3.88251e-19 6.34846 -38.1708 11.0698 0.0572798 25.3358 -0.261844 0.670482 22.6001 -0.834182
3.29655 105.951 -35.4475 -0.7675 -0.1036 9.8761 -0.630753 11.5844 -3.90433 2.99354 0.0643267 -1.05018 -1.30452 5.82507 0.841165 -1.31733 7.94249 1.86194 -0.0 0.0 0.0 -0.0 0.0 0.0 -1.12258e-14 1.1661e-13 2.0884e-15 77.3202 12.9446 10.9988 -11.4213 -5.05069 20.4958 -1.60778 33.4994 5.33758 5.72343e-10 1.31664e-11 -5.79038e-10 9.71788e-10 3.37051e-11 -1.01421e-09 5.72343e-10 1.31722e-11 -5.79052e-10 7.73091 5.47488 0.417314 5.72345e-10 1.31709e-11 -5.79031e-10 2.90554 0.965183 0.102902 5.72351e-10 1.31728e-11 -5.79042e-10 10.2786 0.731801 0.0259123 5.72346e-10 1.317e-11 -5.79034e-10 2.22167 -0.733487 -0.20892 -1.1368e-14 1.16613e-13 1.81275e-15 -70.6179 27.9531 -22.7504 8.81298 -3.45009 -15.5941 0.202274 -12.6936 1.81413 1.14441e-11 4.56805e-10 1.02605e-09 1.34569e-11 7.85548e-10 1.77229e-09 1.14396e-11 4.56805e-10 1.02606e-09 -7.73091 5.47488 -0.417314 1.1445e-11 4.56805e-10 1.02605e-09 -2.90554 0.965183 -0.102902 1.14375e-11 4.56805e-10 1.02605e-09 -10.2786 0.731801 -0.0259123 1.14559e-11 4.56808e-10 1.02605e-09 -2.22167 -0.733487 0.20892 -2.03217e-16 0.0 -3.88251e-19 -5.87467 -36.3292 -6.28775 -0.238306 30.0069 0.21087 0.550787 19.8983 -3.77271 2.03217e-16 0.0 3.88251e-19 6.33527 -38.0565 11.103 0.0433491 24.3546 -0.248727 0.658032 22.6324 -0.787749
3.32682 105.459 -34.5815 -0.7387 -0.2846 9.7234 -0.640395 11.5111 -3.8506 2.94453 0.178209 -1.03565 -1.27972 5.94504 0.854597 -1.36834 8.13867 1.88303 -0.0 0.0 0.0 -0.0 0.0 0.0 -1.54266e-14 1.52666e-13 3.32964e-15 77.5355 12.6556 10.7014 -11.2557 -4.9402 20.1783 -1.6447 33.8297 5.40467 7.6829e-10 -1.84536e-11 -7.12241e-10 1.30692e-09 -1.74104e-11 -1.24935e-09 7.6829e-10 -1.84468e-11 -7.12257e-10 7.73091 5.47488 0.417314 7.68291e-10 -1.84474e-11 -7.12234e-10 2.90554 0.965183 0.102902 7.68298e-10 -1.84465e-11 -7.12245e-10 10.2786 0.731801 0.0259123 7.68294e-10 -1.84496e-11 -7.12237e-10 2.22167 -0.733487 -0.20892 -1.55848e-14 1.52666e-13 3.03147e-15 -71.0825 27.3939 -22.339 8.603 -3.33464 -15.2065 0.181578 -12.0536 1.71973 1.13458e-11 5.66692e-10 1.4441e-09 8.99143e-12 9.7228e-10 2.49559e-09 1.13411e-11 5.66692e-10 1.4441e-09 -7.73091 5.47488 -0.417314 1.13465e-11 5.66692e-10 1.44409e-09 -2.90554 0.965183 -0.102902 1.13384e-11 5.66693e-10 1.4441e-09 -10.2786 0.731801 -0.0259123 1.13588e-11 5.66696e-10 1.4441e-09 -2.22167 -0.733487 0.20892 -2.03217e-16 0.0 -3.88251e-19 -5.85908 -36.2488 -6.1769 -0.223273 28.6759 0.189388 0.49452 20.1027 -3.49733 2.03217e-16 0.0 3.88251e-19 6.30772 -37.8126 11.129 0.0326679 23.4532 -0.237726 0.65337 22.7653 -0.765912
3.36294 104.895 -33.6707 -0.7099 -0.4523 9.5291 -0.610538 11.3447 -3.83795 2.88326 0.347182 -1.03443 -1.29699 6.10031 0.872887 -1.41286 8.4074 1.91945 -0.0 0.0 0.0 -0.0 0.0 0.0 -1.00933e-14 1.17557e-13 2.23245e-16 77.7033 12.4369 10.4306 -11.0729 -4.81988 19.829 -1.69471 34.2677 5.4945 6.12954e-10 1.98442e-11 -6.8431e-10 1.03957e-09 4.71507e-11 -1.19726e-09 6.12954e-10 1.98513e-11 -6.84324e-10 7.73091 5.47488 0.417314 6.12955e-10 1.98503e-11 -6.84303e-10 2.90554 0.965183 0.102902 6.1296e-10 1.98515e-11 -6.84314e-10 10.2786 0.731801 0.0259123 6.12957e-10 1.98488e-11 -6.84306e-10 2.22167 -0.733487 -0.20892 -1.0202e-14 1.17555e-13 -8.54152e-17 -71.5791 26.7247 -21.9099 8.3696 -3.20852 -14.7768 0.160247 -11.3428 1.61543 -2.1061e-10 3.91604e-10 1.17938e-09 -3.73731e-10 6.70426e-10 2.03753e-09 -2.10616e-10 3.91604e-10 1.17938e-09 -7.73091 5.47488 -0.417314 -2.1061e-10 3.91605e-10 1.17937e-09 -2.90554 0.965183 -0.102902 -2.10618e-10 3.91605e-10 1.17938e-09 -10.2786 0.731801 -0.0259123 -2.106e-10 3.91608e-10 1.17938e-09 -2.22167 -0.733487 0.20892 -2.03217e-16 0.0 -3.88251e-19 -5.83406 -36.0352 -6.00926 -0.209248 27.3324 0.169791 0.431273 20.3816 -3.18893 2.03217e-16 0.0 3.88251e-19 6.26311 -37.4297 11.1486 0.0257735 22.6138 -0.228991 0.660912 23.0157 -0.782394
